PathFileType	4	(X/Y/Z)	C:/Users/opensim2020/Desktop/walking_exp_matlab/subject06_walking20_straight_04.trc																																																																																																																															
DataRate	CameraRate	NumFrames	NumMarkers	Units	OrigDataRate	OrigDataStartFrame	OrigNumFrames																																																																																																																											
100	100	5	43	mm	100	2221	126																																																																																																																											
Frame#	Time	LFHD			RFHD			LBHD			RBHD			C7			T10			CLAV			STRN			RBAK			LSHO			LUPA			LELB			LFRM			LWRA			LWRB			LFIN			RSHO			RUPA			RELB			RFRM			RWRA			RWRB			RFIN			LASI			RASI			LPSI			RPSI			LTHI			LKNE			LTIB			LANK			LHEE			LTOE			RTHI			RKNE			RTIB			RANK			RHEE			RTOE			*39			*40			*41			*42		
		X1	Y1	Z1	X2	Y2	Z2	X3	Y3	Z3	X4	Y4	Z4	X5	Y5	Z5	X6	Y6	Z6	X7	Y7	Z7	X8	Y8	Z8	X9	Y9	Z9	X10	Y10	Z10	X11	Y11	Z11	X12	Y12	Z12	X13	Y13	Z13	X14	Y14	Z14	X15	Y15	Z15	X16	Y16	Z16	X17	Y17	Z17	X18	Y18	Z18	X19	Y19	Z19	X20	Y20	Z20	X21	Y21	Z21	X22	Y22	Z22	X23	Y23	Z23	X24	Y24	Z24	X25	Y25	Z25	X26	Y26	Z26	X27	Y27	Z27	X28	Y28	Z28	X29	Y29	Z29	X30	Y30	Z30	X31	Y31	Z31	X32	Y32	Z32	X33	Y33	Z33	X34	Y34	Z34	X35	Y35	Z35	X36	Y36	Z36	X37	Y37	Z37	X38	Y38	Z38	X39	Y39	Z39	X40	Y40	Z40	X41	Y41	Z41	X42	Y42	Z42	X43	Y43	Z43
																																																																																																																																		
64	0.63	-251.26256	1640.08691	-1518.69385	-258.08813	1625.53247	-1387.29614	-386.27249	1590.00024	-1526.06836	-391.35632	1581.27002	-1397.29309	-392.91507	1426.62866	-1466.76538	-423.32666	1096.16943	-1446.86255	-280.07516	1351.54004	-1465.95325	-238.12671	1177.41431	-1466.37317	-461.14255	1256.60278	-1377.36536	-339.04807	1378.96545	-1627.72119	-398.87701	1188.9989	-1696.34521	-445.44904	1085.10083	-1701.50854	-481.99518	939.64783	-1720.79785	-484.03659	811.12598	-1668.68713	-531.67242	831.64276	-1717.6665	-542.74109	740.76312	-1703.28333	-325.98447	1387.58862	-1305.18958	-359.91071	1199.79419	-1201.06433	-339.95248	1084.39197	-1179.23889	-267.53693	993.80792	-1168.45813	-145.06625	921.67963	-1219.27087	-182.62119	888.0188	-1175.26599	-106.89907	855.68756	-1179.57129	-232.18616	952.09363	-1554.58313	-248.76357	939.5401	-1336.98193	-395.9252	968.36896	-1534.60083	-397.62234	959.05469	-1367.22876	-216.64081	650.20599	-1623.20471	-161.15181	499.0491	-1591.27026	-162.08238	239.41946	-1589.6925	-162.08389	69.16772	-1548.2583	-205.28448	55.66874	-1505.02808	-20.34117	43.2925	-1536.68591	-308.20084	595.70874	-1281.51428	-303.45059	468.56815	-1293.68994	-507.12097	316.13342	-1318.69482	-659.21234	222.51929	-1374.1377	-682.06818	248.26691	-1425.18994	-657.46045	63.53976	-1369.53845	-353.08011	1679.85645	-1462.84631	NaN	NaN	NaN	NaN	NaN	NaN	NaN	NaN	NaN
65	0.64	-235.65662	1642.1156	-1519.42139	-242.97966	1627.68018	-1387.92151	-370.71533	1591.63318	-1526.99072	-376.11771	1583.07983	-1398.11951	-377.18439	1428.53394	-1467.76404	-407.50064	1097.9718	-1447.76807	-264.43436	1353.32874	-1466.21448	-222.60629	1178.92603	-1466.62708	-446.01785	1258.30969	-1378.80774	-322.25677	1380.61084	-1628.52905	-379.24567	1189.53638	-1697.88818	-424.67618	1085.24646	-1703.72729	-459.25589	939.32776	-1723.18481	-460.83826	810.96454	-1670.28015	-507.47516	830.81061	-1720.50928	-517.78534	739.75214	-1705.76953	-311.15128	1388.90674	-1305.51782	-347.18924	1200.37415	-1202.63293	-328.45609	1084.56396	-1180.922	-258.53796	991.56036	-1169.97144	-137.99541	915.43872	-1219.85486	-176.90573	883.08301	-1176.01111	-102.32979	848.25604	-1179.82922	-216.85587	953.64307	-1555.44312	-233.02654	940.60907	-1337.39001	-380.43784	970.06335	-1534.97595	-382.10989	959.72925	-1367.40369	-204.78169	649.77618	-1623.03296	-150.10245	498.4516	-1591.08972	-156.83131	239.10657	-1588.44556	-161.50568	69.40249	-1547.8562	-205.07141	56.01883	-1504.58691	-19.76218	42.78918	-1536.38599	-285.15909	596.65802	-1282.12366	-275.79208	470.25238	-1293.88794	-476.92648	316.81509	-1317.26282	-631.52576	226.72618	-1372.93787	-654.89154	253.25459	-1423.68347	-631.02429	67.97672	-1370.56726	-337.94019	1681.62451	-1463.76807	NaN	NaN	NaN	NaN	NaN	NaN	NaN	NaN	NaN
66	0.65	-220.39479	1644.18433	-1519.71814	-227.81465	1629.96509	-1388.30127	-355.23642	1593.62854	-1527.63611	-360.80133	1585.17737	-1398.83521	-361.35168	1431.0415	-1468.61316	-391.95764	1100.09912	-1448.86865	-248.8493	1355.41492	-1466.37366	-207.16025	1180.74841	-1466.8634	-431.07635	1260.57239	-1380.2157	-305.63391	1382.45251	-1629.13257	-359.42224	1190.16272	-1699.22449	-403.48279	1085.33594	-1705.6958	-435.79205	938.85773	-1725.12744	-436.62906	810.80267	-1671.97302	-482.43423	829.8183	-1723.27124	-491.46515	738.61127	-1708.58826	-296.34836	1390.49097	-1305.69617	-333.94455	1201.32483	-1203.77649	-316.96567	1084.86182	-1182.52002	-249.90285	989.32269	-1171.37952	-131.55533	908.91217	-1220.35876	-171.97473	877.9458	-1176.74463	-98.54768	840.39569	-1180.12256	-201.82265	955.25726	-1556.14746	-217.57013	942.28168	-1337.61414	-365.19714	971.95276	-1535.5863	-366.96072	960.98645	-1367.83228	-192.98309	649.52386	-1622.71277	-139.57994	497.83734	-1590.8324	-153.21892	239.28767	-1587.91846	-161.39064	69.6221	-1547.44751	-204.79657	55.9858	-1504.27185	-19.47237	42.45374	-1536.2251	-262.17987	598.64667	-1282.92834	-248.53394	472.80179	-1294.38525	-447.77792	317.74246	-1315.94897	-603.95752	229.95804	-1372.19238	-630.14001	255.76897	-1421.7229	-595.9455	71.34817	-1370.98962	-322.66171	1683.75098	-1464.48914	NaN	NaN	NaN	NaN	NaN	NaN	NaN	NaN	NaN
67	0.66	-204.89954	1646.48877	-1519.93054	-212.5957	1632.37952	-1388.53699	-339.64618	1595.84326	-1528.15417	-346.17636	1587.35632	-1399.34937	-345.59784	1433.75354	-1469.24902	-376.72314	1102.53076	-1449.94519	-233.68179	1357.58228	-1466.46667	-192.06996	1182.87341	-1467.10657	-416.29962	1263.14404	-1381.55359	-289.33826	1384.60315	-1629.61377	-339.66696	1191.03601	-1700.22644	-381.9295	1085.57202	-1707.52051	-411.52103	938.60309	-1727.16846	-411.36847	810.80573	-1673.5874	-456.50488	828.86859	-1726.07068	-463.63617	737.60339	-1712.05249	-281.52203	1392.32422	-1305.78735	-321.06476	1202.74854	-1204.95203	-305.5387	1085.40161	-1183.98865	-241.49809	987.20538	-1172.83386	-125.84511	902.1806	-1220.81641	-167.86952	872.85852	-1177.3927	-96.18258	832.43115	-1180.2146	-187.10701	956.98651	-1556.74133	-202.4928	944.53192	-1337.9165	-350.1897	973.97473	-1536.32861	-352.02191	962.87701	-1368.49976	-181.40396	649.74103	-1622.4458	-130.15291	497.37152	-1590.72839	-150.5661	239.81645	-1588.0509	-161.3481	69.87859	-1547.17725	-204.91255	56.09836	-1504.1106	-19.37761	42.26443	-1536.13123	-239.65634	601.32574	-1283.65857	-221.72362	476.09592	-1295.08887	-419.56647	320.18839	-1315.86511	-574.96881	231.50249	-1371.45117	-604.83618	255.54283	-1419.89673	-557.2121	73.38563	-1371.67712	-307.31247	1686.03015	-1464.99731	NaN	NaN	NaN	NaN	NaN	NaN	NaN	NaN	NaN
68	0.67	-189.38258	1648.94324	-1519.99341	-197.38869	1634.83997	-1388.58496	-324.14023	1598.2439	-1528.55798	-330.91357	1589.76929	-1399.66089	-330.19296	1436.38025	-1469.91724	-361.70319	1105.18738	-1451.01648	-218.43086	1359.98999	-1466.55701	-177.10732	1185.19299	-1467.38318	-401.57379	1265.82629	-1382.92773	-273.22827	1387.07373	-1630.00061	-319.59976	1192.12097	-1701.20044	-360.02292	1086.06726	-1709.11426	-386.63477	938.58276	-1729.10315	-385.72305	810.84076	-1675.32715	-429.62106	828.1109	-1728.78796	-434.59488	736.87292	-1715.66138	-266.80157	1394.40784	-1306.02905	-308.00955	1204.5199	-1206.37024	-293.89282	1086.35266	-1185.70776	-233.35095	985.33026	-1174.33459	-120.64255	895.47827	-1221.07495	-165.03902	867.74237	-1178.05347	-94.54624	824.47693	-1180.33643	-172.61778	958.81122	-1557.26611	-187.4095	947.44452	-1338.26709	-335.25098	976.29211	-1537.09326	-337.09637	965.27753	-1369.35999	-170.44438	650.54138	-1622.47424	-121.92406	496.98846	-1590.80664	-148.69125	240.3822	-1587.96387	-161.05038	70.1103	-1546.84033	-205.18907	56.40131	-1503.84314	-19.25205	42.11513	-1536.08582	-217.3839	604.77472	-1284.6272	-195.46358	480.19852	-1296.07043	-391.16431	323.62775	-1316.41199	-544.28033	230.62634	-1370.68225	-577.17188	252.92523	-1418.70471	-517.29089	74.37514	-1371.29089	-291.99173	1688.45544	-1465.26038	NaN	NaN	NaN	NaN	NaN	NaN	NaN	NaN	NaN
